{
    "asset" : {
        "generator" : "Khronos glTF Blender I/O v1.3.48",
        "version" : "2.0"
    },
    "scene" : 0,
    "scenes" : [
        {
            "name" : "Scene",
            "nodes" : [
                0
            ]
        }
    ],
    "nodes" : [
        {
            "mesh" : 0,
            "name" : "Object_25"
        }
    ],
    "materials" : [
        {
            "doubleSided" : true,
            "emissiveFactor" : [
                0,
                0,
                0
            ],
            "name" : "Material_2.009",
            "pbrMetallicRoughness" : {
                "baseColorFactor" : [
                    0.6304842233657837,
                    0.06189356744289398,
                    0.9803925156593323,
                    1
                ],
                "metallicFactor" : 1,
                "roughnessFactor" : 0.5527864098548889
            }
        }
    ],
    "meshes" : [
        {
            "name" : "Object_25",
            "primitives" : [
                {
                    "attributes" : {
                        "POSITION" : 0,
                        "NORMAL" : 1,
                        "TEXCOORD_0" : 2
                    },
                    "indices" : 3,
                    "material" : 0
                }
            ]
        }
    ],
    "accessors" : [
        {
            "bufferView" : 0,
            "componentType" : 5126,
            "count" : 3352,
            "max" : [
                6.159999847412109,
                3.8715507984161377,
                -0.1599999964237213
            ],
            "min" : [
                4.840000152587891,
                0.37155088782310486,
                -13.84000015258789
            ],
            "type" : "VEC3"
        },
        {
            "bufferView" : 1,
            "componentType" : 5126,
            "count" : 3352,
            "type" : "VEC3"
        },
        {
            "bufferView" : 2,
            "componentType" : 5126,
            "count" : 3352,
            "type" : "VEC2"
        },
        {
            "bufferView" : 3,
            "componentType" : 5123,
            "count" : 15990,
            "type" : "SCALAR"
        }
    ],
    "bufferViews" : [
        {
            "buffer" : 0,
            "byteLength" : 40224,
            "byteOffset" : 0
        },
        {
            "buffer" : 0,
            "byteLength" : 40224,
            "byteOffset" : 40224
        },
        {
            "buffer" : 0,
            "byteLength" : 26816,
            "byteOffset" : 80448
        },
        {
            "buffer" : 0,
            "byteLength" : 31980,
            "byteOffset" : 107264
        }
    ],
    "buffers" : [
        {
            "byteLength" : 139244,
            "uri" : "data:application/octet-stream;base64,"
        }
    ]
}
