{
    "asset" : {
        "generator" : "Khronos glTF Blender I/O v1.3.48",
        "version" : "2.0"
    },
    "scene" : 0,
    "scenes" : [
        {
            "name" : "Scene",
            "nodes" : [
                0
            ]
        }
    ],
    "nodes" : [
        {
            "mesh" : 0,
            "name" : "Object_17"
        }
    ],
    "materials" : [
        {
            "doubleSided" : true,
            "emissiveFactor" : [
                0,
                0,
                0
            ],
            "name" : "Material_2.005",
            "pbrMetallicRoughness" : {
                "baseColorFactor" : [
                    0.6304842233657837,
                    0.06189356744289398,
                    0.9803925156593323,
                    1
                ],
                "metallicFactor" : 1,
                "roughnessFactor" : 0.5527864098548889
            }
        }
    ],
    "meshes" : [
        {
            "name" : "Object_17.001",
            "primitives" : [
                {
                    "attributes" : {
                        "POSITION" : 0,
                        "NORMAL" : 1,
                        "TEXCOORD_0" : 2
                    },
                    "indices" : 3,
                    "material" : 0
                }
            ]
        }
    ],
    "accessors" : [
        {
            "bufferView" : 0,
            "componentType" : 5126,
            "count" : 524,
            "max" : [
                6.159999847412109,
                0.37155088782310486,
                -3.8399999141693115
            ],
            "min" : [
                -10,
                0.0715508759021759,
                -20
            ],
            "type" : "VEC3"
        },
        {
            "bufferView" : 1,
            "componentType" : 5126,
            "count" : 524,
            "type" : "VEC3"
        },
        {
            "bufferView" : 2,
            "componentType" : 5126,
            "count" : 524,
            "type" : "VEC2"
        },
        {
            "bufferView" : 3,
            "componentType" : 5123,
            "count" : 1524,
            "type" : "SCALAR"
        }
    ],
    "bufferViews" : [
        {
            "buffer" : 0,
            "byteLength" : 6288,
            "byteOffset" : 0
        },
        {
            "buffer" : 0,
            "byteLength" : 6288,
            "byteOffset" : 6288
        },
        {
            "buffer" : 0,
            "byteLength" : 4192,
            "byteOffset" : 12576
        },
        {
            "buffer" : 0,
            "byteLength" : 3048,
            "byteOffset" : 16768
        }
    ],
    "buffers" : [
        {
            "byteLength" : 19816,
            "uri" : "data:application/octet-stream;base64,"
        }
    ]
}
